<svg xmlns="http://www.w3.org/2000/svg" width="297" height="87" fill="none" xmlns:v="https://vecta.io/nano"><path d="M12.656 86.427c-4.467 0-7.633-1.267-9.5-3.8-1.8-2.6-2.7-6.5-2.7-11.7 0-3.333.533-8.333 1.6-15l4.7-26.7-5.3-10.7c3.133-2 6.467-3.7 10-5.1s7.067-2.1 10.6-2.1c4.8 0 8.567.733 11.3 2.2s4.767 3.533 6.1 6.2c1.4 2.667 2.433 5.8 3.1 9.4.733 3.6 1.4 7.533 2 11.8.6 4.2 1.5 8.6 2.7 13.2s3.033 9.267 5.5 14l2.4-1.6c-1.867-3.667-3.433-7.933-4.7-12.8-1.2-4.867-1.8-9.733-1.8-14.6s.8-9.4 2.4-13.6c1.667-4.2 4.133-7.6 7.4-10.2 3.267-2.667 7.333-4 12.2-4 1.533 0 3.133.167 4.8.5 1.733.267 3.233.733 4.5 1.4l-2.1 11.9-2.5 13-2.3 12.5-1.7 10.3c-.4 2.867-.6 4.9-.6 6.1 0 3.467.267 6.333.8 8.6.533 2.2 1.333 4.067 2.4 5.6-1.933 1.267-3.733 2.267-5.4 3s-3.467 1.267-5.4 1.6c-1.867.333-4.067.5-6.6.5-5.2 0-9.567-1.233-13.1-3.7-3.467-2.467-6.267-5.867-8.4-10.2s-3.733-9.3-4.8-14.9c-1-5.6-1.667-11.533-2-17.8h-1.6l-2.3 11.2-1.7 10c-.4 2.933-.6 5.1-.6 6.5 0 3.4.233 6.267.7 8.6.533 2.333 1.3 4.3 2.3 5.9-4 3-8.133 4.5-12.4 4.5zm91.612-.1c-4.134 0-7.367-.733-9.7-2.2-2.267-1.4-3.867-3.3-4.8-5.7-.867-2.467-1.3-5.233-1.3-8.3 0-3.533.367-7.233 1.1-11.1l2.2-11.4c.733-3.733 1.1-7 1.1-9.8 0-4.133-.7-7.167-2.1-9.1a44.75 44.75 0 0 1 8.5-3.5c3-.933 5.4-1.4 7.2-1.4 2.733 0 4.7.567 5.9 1.7 1.266 1.067 1.9 2.867 1.9 5.4 0 1.4-.2 3.333-.6 5.8-.4 2.4-.9 5.033-1.5 7.9l-1.9 8.7c-.6 2.867-1.1 5.467-1.5 7.8s-.6 4.167-.6 5.5c0 2.467.633 4.333 1.9 5.6 1.333 1.267 2.933 1.9 4.8 1.9 2.133 0 4.366-.8 6.7-2.4s4.266-3.933 5.8-7l1-5.5 1.5-7 1.6-7.2 1.4-5.9-6-8a48.01 48.01 0 0 1 9.2-5.2c3.266-1.4 6.6-2.1 10-2.1 3 0 5.133.567 6.4 1.7 1.333 1.067 2 2.867 2 5.4 0 1.4-.267 3.333-.8 5.8-.467 2.467-1.067 5.233-1.8 8.3l-2.1 9.4c-.734 3.267-1.367 6.467-1.9 9.6-.467 3.067-.7 5.833-.7 8.3 0 2 .233 3.8.7 5.4.533 1.533 1.333 2.767 2.4 3.7-3.734 3.267-7.7 4.9-11.9 4.9-4.267 0-7.234-.967-8.9-2.9s-2.5-4.233-2.5-6.9l-1-.5c-2.2 3.267-5.267 5.8-9.2 7.6s-8.1 2.7-12.5 2.7zm76.767 0c-4.267 0-7.3-1.267-9.1-3.8s-2.7-6.4-2.7-11.6c0-1.467.167-3.533.5-6.2a248.31 248.31 0 0 1 1.3-9.1l1.7-9.9c-1.4.267-2.767.567-4.1.9a45.88 45.88 0 0 0-3.6 1.1 23.77 23.77 0 0 1-.6-3c-.067-1-.1-1.733-.1-2.2 0-3.467 1-5.967 3-7.5 2.067-1.6 4.533-2.4 7.4-2.4 0-1.533-.2-3.233-.6-5.1s-1.1-3.933-2.1-6.2c2.8-2.067 5.6-3.8 8.4-5.2s5.9-2.1 9.3-2.1c2.933 0 4.967.567 6.1 1.7 1.133 1.067 1.7 2.867 1.7 5.4 0 1.267-.133 2.767-.4 4.5s-.6 3.633-1 5.7c1.467-.2 2.867-.433 4.2-.7l3.9-1a8.85 8.85 0 0 1 .5 2.3c.133.733.2 1.467.2 2.2 0 2.667-.833 5-2.5 7-1.6 1.933-4.1 2.9-7.5 2.9h-1.5c-.933 4.267-1.767 8.633-2.5 13.1s-1.1 8.633-1.1 12.5c0 2.6.233 4.933.7 7 .533 2 1.333 3.6 2.4 4.8-3.733 3.267-7.7 4.9-11.9 4.9zm41.659 0c-4.067 0-6.967-1.067-8.7-3.2s-2.6-5.2-2.6-9.2c0-1.4.2-3.533.6-6.4.4-2.933.9-6.167 1.5-9.7l2.1-10.8a301.21 301.21 0 0 1 2.1-9.6l-5.2-8c3.466-1.533 6.666-2.833 9.6-3.9 3-1.133 5.666-1.7 8-1.7 1.733 0 3 .6 3.8 1.8s1.2 2.733 1.2 4.6c0 2.133-.367 4.533-1.1 7.2l-2.2 7.4 1 .5c2.333-6.867 4.966-12.167 7.9-15.9 3-3.733 6.333-5.6 10-5.6 2.4 0 4.333.533 5.8 1.6 1.466 1 2.533 2.267 3.2 3.8.733 1.467 1.1 2.9 1.1 4.3 0 2.2-.567 4.333-1.7 6.4-1.067 2-2.8 3.667-5.2 5-2.4 1.267-5.567 1.9-9.5 1.9-1.534 0-3.034.333-4.5 1s-2.8 1.933-4 3.8c-1.2 1.8-2.167 4.367-2.9 7.7-.667 3.333-1 7.667-1 13 0 4.133.7 7.167 2.1 9.1-4.134 3.267-7.934 4.9-11.4 4.9zm60.429-69c-3.066 0-5.6-.667-7.6-2s-3-3.133-3-5.4c0-2.2.734-4 2.2-5.4 1.467-1.467 3.234-2.567 5.3-3.3 2.134-.733 4.134-1.1 6-1.1 3.067 0 5.6.667 7.6 2 2 1.267 3 3.067 3 5.4 0 1.933-.633 3.667-1.9 5.2-1.266 1.467-2.933 2.6-5 3.4-2 .8-4.2 1.2-6.6 1.2zm-6 69c-4.266 0-7.3-1.067-9.1-3.2s-2.7-5.2-2.7-9.2c0-1.467.2-3.5.6-6.1.4-2.667.934-5.6 1.6-8.8l2.1-9.9 2.1-9.4-5.6-8.4c3.534-2.133 6.9-3.9 10.1-5.3 3.2-1.467 6.4-2.2 9.6-2.2 2.8 0 4.734.6 5.8 1.8 1.134 1.2 1.7 3.067 1.7 5.6 0 1-.266 2.633-.8 4.9-.466 2.267-1.066 4.933-1.8 8l-2.2 9.7c-.733 3.333-1.366 6.633-1.9 9.9-.466 3.2-.7 6.067-.7 8.6 0 2 .234 3.8.7 5.4.534 1.533 1.334 2.767 2.4 3.7-3.733 3.267-7.7 4.9-11.9 4.9z" fill="#fff"/></svg>