<svg xmlns="http://www.w3.org/2000/svg" width="512" height="512" fill="#182538"><path d="M233.581 80.559l9.749-11.261 127.404 110.301-21.108 1.428L233.581 80.559zm-37.476 118.395l-21.694 1.101 128.363 109.184-1.793-21.08-104.876-89.205zm17.347-96.918l-2.205-21.61 127.404 110.301-21.108 1.428-104.091-90.119zm52.815 218.587l9.811-11.207-126.793-111.003 1.493 21.103 115.489 101.107z"/><path d="M150.361 212.2l-1.196-13.455 220.986-19.65-9.068 12.258L150.361 212.2zM136.9 344.812h11.9v102.9l-74.2-77.84v72.94H62.7v-102.9l74.2 77.84v-72.94zm40.935 98v-11.2h49.42v11.2h-49.42zm0-86.8v-11.2h49.42v11.2h-49.42zm0 39.2v-11.2h46.62v11.2h-46.62zm-6.58-50.4h11.9v98h-11.9v-98zm125.972 0h14l-28.98 46.62 31.08 51.38h-14l-23.1-41.02-23.8 41.02h-14l31.92-51.38-28.42-46.62h14l20.44 36.26 20.86-36.26zm28.657 0h11.9v98h-11.9v-98zm41.316 49c0 7.373 1.587 13.953 4.76 19.74 3.267 5.786 7.7 10.36 13.3 13.72s11.947 5.04 19.04 5.04c7.187 0 13.533-1.68 19.04-5.04 5.6-3.36 9.987-7.934 13.16-13.72 3.267-5.787 4.9-12.367 4.9-19.74s-1.633-13.954-4.9-19.74c-3.173-5.787-7.56-10.36-13.16-13.72-5.507-3.36-11.853-5.04-19.04-5.04-7.093 0-13.44 1.68-19.04 5.04s-10.033 7.933-13.3 13.72c-3.173 5.786-4.76 12.366-4.76 19.74zm-12.6 0c0-7.187 1.213-13.814 3.64-19.88 2.52-6.16 6.02-11.48 10.5-15.96 4.48-4.574 9.753-8.12 15.82-10.64 6.067-2.614 12.647-3.92 19.74-3.92 7.187 0 13.767 1.306 19.74 3.92 6.067 2.52 11.34 6.066 15.82 10.64 4.48 4.48 7.933 9.8 10.36 15.96 2.52 6.066 3.78 12.693 3.78 19.88 0 7.093-1.26 13.72-3.78 19.88-2.427 6.16-5.88 11.526-10.36 16.1-4.48 4.48-9.753 8.026-15.82 10.64-5.973 2.52-12.553 3.78-19.74 3.78-7.093 0-13.673-1.26-19.74-3.78-6.067-2.614-11.34-6.16-15.82-10.64-4.48-4.574-7.98-9.94-10.5-16.1-2.427-6.16-3.64-12.787-3.64-19.88z"/></svg>