<svg xmlns="http://www.w3.org/2000/svg" width="32" height="32" fill="none"><g clip-path="url(#A)"><circle cx="16" cy="16" r="15.144" fill="#182538"/><g fill="#fff"><path d="M14.335 6.303l.838-.968 10.953 9.483-1.815.123-9.976-8.637zm-2.487 10.803l-1.789.159 10.224 8.697-.082-1.751-8.354-7.105zm.757-8.957l-.189-1.858 10.953 9.483-1.815.123-8.949-7.747zm4.54 18.792l.844-.963-10.9-9.543.128 1.814 9.929 8.692z"/><path d="M7.181 17.62l-.103-1.157 18.998-1.689-.779 1.054L7.181 17.62z"/></g></g><defs><clipPath id="A"><path fill="#fff" d="M0 0h32v32H0z"/></clipPath></defs></svg>