<svg width="512" height="512" viewBox="0 0 512 512" fill="none" xmlns="http://www.w3.org/2000/svg">
<path d="M91.9854 479.548C65.3937 479.548 46.5415 472.007 35.4285 456.926C24.7125 441.447 19.3545 418.229 19.3545 387.271C19.3545 367.427 22.5296 337.66 28.8799 297.971C35.627 257.885 44.9539 204.9 56.8606 139.017L25.3078 75.3157C43.9617 63.409 63.8062 53.2883 84.8414 44.9536C105.877 36.619 126.912 32.4516 147.947 32.4516C176.523 32.4516 198.947 36.8174 215.22 45.549C231.492 54.2806 243.597 66.5842 251.535 82.4598C259.87 98.3354 266.022 116.989 269.991 138.421C274.356 159.853 278.325 183.27 281.897 208.671C285.469 233.675 290.827 259.87 297.971 287.255C305.115 314.64 316.03 342.423 330.715 370.602L345.003 361.077C333.89 339.248 324.563 313.847 317.022 284.874C309.878 255.901 306.306 226.928 306.306 197.955C306.306 168.982 311.069 141.993 320.594 116.989C330.516 91.9851 345.201 71.7437 364.649 56.265C384.097 40.3894 408.307 32.4516 437.28 32.4516C446.408 32.4516 455.934 33.4438 465.856 35.4283C476.175 37.0159 485.105 39.7941 492.646 43.763C489.074 65.1951 484.907 88.81 480.144 114.608C475.381 140.009 470.42 165.807 465.261 192.001C460.498 218.196 455.934 243.002 451.568 266.418C447.599 289.835 444.225 310.275 441.447 327.738C439.066 344.804 437.875 356.909 437.875 364.053C437.875 384.692 439.463 401.758 442.638 415.252C445.813 428.35 450.576 439.462 456.926 448.591C445.416 456.132 434.7 462.085 424.778 466.451C414.856 470.817 404.139 473.992 392.63 475.976C381.517 477.961 368.419 478.953 353.338 478.953C322.38 478.953 296.384 471.611 275.349 456.926C254.71 442.241 238.041 421.999 225.34 396.201C212.64 370.404 203.115 340.835 196.764 307.496C190.811 274.158 186.842 238.834 184.858 201.527H175.332C170.57 223.753 166.005 245.978 161.64 268.204C157.671 290.43 154.297 310.275 151.519 327.738C149.138 345.201 147.947 358.1 147.947 366.435C147.947 386.676 149.336 403.742 152.114 417.633C155.289 431.525 159.854 443.233 165.807 452.758C141.994 470.618 117.386 479.548 91.9854 479.548Z" fill="#008000"/>
</svg>
