<svg width="32" height="32" viewBox="0 0 32 32" fill="none" xmlns="http://www.w3.org/2000/svg">
<g clip-path="url(#clip0_256_24)">
<circle cx="16" cy="16" r="16" fill="#008000"/>
<path d="M9.01054 25.5246C7.87757 25.5246 7.07435 25.2033 6.60087 24.5607C6.1443 23.9012 5.91602 22.912 5.91602 21.593C5.91602 20.7475 6.0513 19.4792 6.32186 17.7882C6.60933 16.0803 7.00671 13.8229 7.51401 11.0158L6.16967 8.30174C6.96444 7.79444 7.80993 7.36324 8.70616 7.00813C9.60239 6.65302 10.4986 6.47546 11.3949 6.47546C12.6124 6.47546 13.5678 6.66147 14.2611 7.03349C14.9544 7.40551 15.4702 7.92972 15.8084 8.60612C16.1635 9.28252 16.4256 10.0773 16.5947 10.9904C16.7807 11.9036 16.9498 12.9013 17.102 13.9835C17.2542 15.0488 17.4825 16.1649 17.7868 17.3317C18.0912 18.4985 18.5562 19.6822 19.1819 20.8828L19.7907 20.4769C19.3172 19.5469 18.9198 18.4646 18.5985 17.2302C18.2941 15.9958 18.1419 14.7614 18.1419 13.5269C18.1419 12.2925 18.3449 11.1426 18.7507 10.0773C19.1735 9.01196 19.7991 8.14955 20.6277 7.49006C21.4563 6.81366 22.4878 6.47546 23.7222 6.47546C24.1112 6.47546 24.517 6.51774 24.9398 6.60229C25.3794 6.66993 25.7599 6.7883 26.0812 6.9574C25.929 7.87054 25.7514 8.87668 25.5485 9.97583C25.3456 11.0581 25.1342 12.1572 24.9144 13.2733C24.7115 14.3893 24.517 15.4462 24.331 16.4439C24.1619 17.4416 24.0182 18.3125 23.8998 19.0565C23.7983 19.7836 23.7476 20.2994 23.7476 20.6038C23.7476 21.4831 23.8152 22.2102 23.9505 22.7852C24.0858 23.3432 24.2887 23.8167 24.5593 24.2056C24.0689 24.5269 23.6123 24.7805 23.1896 24.9665C22.7668 25.1525 22.3103 25.2878 21.8199 25.3724C21.3464 25.4569 20.7884 25.4992 20.1458 25.4992C18.8268 25.4992 17.7192 25.1864 16.823 24.5607C15.9436 23.935 15.2334 23.0726 14.6923 21.9735C14.1512 20.8743 13.7453 19.6145 13.4748 18.1941C13.2211 16.7736 13.052 15.2687 12.9675 13.6791H12.5616C12.3587 14.6261 12.1643 15.573 11.9782 16.52C11.8091 17.467 11.6654 18.3125 11.547 19.0565C11.4456 19.8005 11.3949 20.3501 11.3949 20.7052C11.3949 21.5676 11.454 22.2948 11.5724 22.8866C11.7077 23.4785 11.9022 23.9773 12.1558 24.3831C11.1412 25.1441 10.0928 25.5246 9.01054 25.5246Z" fill="white"/>
</g>
<defs>
<clipPath id="clip0_256_24">
<rect width="32" height="32" fill="white"/>
</clipPath>
</defs>
</svg>
